<?xml version="1.0" encoding="UTF-8" standalone="no"?><!DOCTYPE svg PUBLIC "-//W3C//DTD SVG 1.1//EN" "http://www.w3.org/Graphics/SVG/1.1/DTD/svg11.dtd"><svg width="100%" height="100%" viewBox="0 0 2321 958" version="1.1" xmlns="http://www.w3.org/2000/svg" xmlns:xlink="http://www.w3.org/1999/xlink" xml:space="preserve" xmlns:serif="http://www.serif.com/" style="fill-rule:evenodd;clip-rule:evenodd;stroke-linejoin:round;stroke-miterlimit:2;"><g transform="matrix(600,0,0,600,2335.8,411.6)"></g><text x="-13.8px" y="411.6px" style="font-family:'CoolveticaRg-Regular', 'Coolvetica';font-size:600px;">H   R<tspan x="1131px 1255.2px 1567.2px 1981.2px " y="411.6px 411.6px 411.6px 411.6px ">IZON</tspan></text><g transform="matrix(1,0,0,0.943396,0,-71.1801)"><g transform="matrix(636,0,0,636,2329.25,1056.64)"></g><text x="-10.284px" y="1056.64px" style="font-family:'CoolveticaRg-Regular', 'Coolvetica';font-size:636px;">M<tspan x="447px 852.612px 1207.34px 1574.95px " y="1056.64px 1056.64px 1056.64px 1056.64px ">AST </tspan>  <tspan x="1961.64px " y="1056.64px ">R</tspan></text></g><clipPath id="_clip1"><rect id="BarArea.svg" x="1579.29" y="496.282" width="415.266" height="460.946"/></clipPath><g clip-path="url(#_clip1)"><path d="M1927.52,619.292l-348.231,-0l-0,-92.258l348.231,0l0,92.258Z" style="fill:#1f5c42;"/><path d="M1678.95,772.94l-99.664,0l0,-92.257l99.664,-0l0,92.257Z" style="fill:#1f5c42;"/><path d="M1863.67,926.589l-284.389,-0l-0,-92.258l284.389,0l-0,92.258Z" style="fill:#1f5c42;"/></g><path d="M664.278,49.969c26.433,18.274 48.038,42.688 62.962,71.148c14.924,28.46 22.72,60.115 22.72,92.25l-119.187,-0c-0,-12.854 -3.119,-25.516 -9.088,-36.9c-5.969,-11.384 -14.611,-21.149 -25.185,-28.46l67.778,-98.038Z" style="fill:#f2c94c;fill-rule:nonzero;"/><path d="M353.671,193.453c3.464,-34.373 15.831,-67.249 35.883,-95.382c20.052,-28.132 47.094,-50.549 78.456,-65.037c31.363,-14.488 65.962,-20.546 100.382,-17.576c34.419,2.97 67.469,14.865 95.886,34.511l-67.778,98.038c-11.367,-7.858 -24.587,-12.616 -38.354,-13.804c-13.768,-1.188 -27.608,1.236 -40.153,7.031c-12.545,5.795 -23.362,14.762 -31.382,26.015c-8.021,11.253 -12.968,24.403 -14.354,38.152l-118.586,-11.948Z" style="fill:#3cc3df;fill-rule:nonzero;"/><path d="M749.96,213.367c-0,51.943 -20.347,101.821 -56.679,138.943c-36.332,37.123 -85.76,58.538 -137.692,59.656l-2.564,-119.16c20.773,-0.447 40.544,-9.013 55.076,-23.861c14.534,-14.85 22.672,-34.801 22.672,-55.578l119.187,-0Z" style="fill:#8979ff;fill-rule:nonzero;"/><path d="M555.589,411.966c-28.119,0.605 -56.047,-4.768 -81.934,-15.764c-25.888,-10.996 -49.145,-27.364 -68.233,-48.021c-19.089,-20.657 -33.573,-45.132 -42.494,-71.806c-8.921,-26.673 -12.076,-54.938 -9.257,-82.922l118.586,11.948c-1.127,11.194 0.135,22.5 3.703,33.169c3.569,10.67 9.362,20.46 16.998,28.723c7.635,8.262 16.938,14.81 27.293,19.208c10.355,4.398 21.526,6.548 32.774,6.305l2.564,119.16Z" style="fill:#ff928a;fill-rule:nonzero;"/></svg>